<svg xmlns="http://www.w3.org/2000/svg" width="400" height="400" viewBox="0 0 400 400" version="1.1">
	<path d="M 299.853 20.236 C 298.079 21.314, 289.174 28.633, 280.064 36.499 C 265.535 49.045, 251.591 62.752, 219.286 96.250 C 211.318 104.512, 209 106.268, 209 104.043 C 209 103.517, 205.327 97.104, 200.838 89.793 C 188.261 69.309, 184.287 62.513, 180.015 54.184 C 177.797 49.859, 173.298 43.477, 169.724 39.585 L 163.375 32.670 119.259 32.200 L 75.142 31.730 72.127 34.115 C 69.317 36.337, 69.107 36.964, 69.055 43.270 C 69.006 49.324, 69.462 50.963, 73.373 58.770 C 75.779 63.571, 78.898 70.704, 80.305 74.620 C 84.054 85.053, 91.187 99.924, 98.715 113 C 109.193 131.201, 123.667 155.476, 131.622 168.192 C 138.578 179.310, 138.883 180.046, 137.842 183.192 C 137.240 185.011, 133.507 189.875, 129.547 194 C 125.587 198.125, 120.356 203.966, 117.923 206.980 C 115.490 209.994, 110.614 215.619, 107.086 219.480 C 103.559 223.341, 94.109 234.352, 86.086 243.948 C 48.602 288.788, 29.114 314.861, 20.953 331.093 C 17.584 337.795, 17 339.897, 17 345.336 L 17 351.716 23.004 355.421 C 26.305 357.459, 30.580 359.382, 32.504 359.694 C 35.757 360.222, 36 360.079, 36 357.631 C 36 355.959, 36.547 355, 37.500 355 C 39.256 355, 39.407 356.800, 37.968 360.585 C 37.046 363.010, 37.286 363.609, 40.218 366.191 C 45.024 370.425, 56.111 377.564, 59 378.286 C 60.375 378.629, 66.772 379.184, 73.215 379.519 L 84.930 380.128 85.573 377.564 C 86.374 374.373, 87.073 374.372, 92.508 377.557 C 95.891 379.540, 97.953 380.046, 101.686 379.807 L 106.500 379.500 106.150 366.872 C 105.749 352.436, 105.557 353.015, 114.586 341.500 C 121.123 333.162, 188.843 264.977, 190.534 265.030 C 191.065 265.047, 195.996 272.135, 201.491 280.780 C 212.515 298.126, 219.895 306.528, 237.435 321.706 C 245.458 328.647, 250.991 332.483, 258.208 336.105 L 268.046 341.041 290.975 340.609 C 303.587 340.371, 314.297 339.935, 314.776 339.639 C 315.255 339.343, 324.388 338.356, 335.073 337.446 C 355.636 335.694, 363.268 334.150, 367.389 330.909 C 369.602 329.168, 369.778 328.607, 368.788 326.435 C 367.544 323.704, 366.433 323.340, 357.267 322.657 C 351.152 322.202, 350.880 322.054, 342.920 314.866 C 338.457 310.837, 332.600 304.767, 329.903 301.378 C 325.219 295.492, 325 294.939, 325 289.001 C 325 282.954, 324.819 282.526, 318.277 273.143 C 314.580 267.839, 309.292 261.017, 306.527 257.983 C 303.762 254.948, 299.971 249.253, 298.102 245.326 C 295.262 239.360, 294.112 237.952, 291.102 236.758 C 288.148 235.585, 287.261 234.534, 286.170 230.914 C 283.777 222.972, 272.079 202.094, 269.165 200.563 C 267.699 199.793, 265.427 197.106, 264.116 194.590 L 261.731 190.017 283.634 167.715 C 302.922 148.076, 312 137.552, 312 134.829 C 312 134.373, 311.132 134, 310.070 134 C 308.900 134, 304.667 137.832, 299.320 143.730 C 286.803 157.538, 271.716 173.049, 271.253 172.587 C 270.139 171.472, 276.006 162.666, 281.971 156.500 C 287.862 150.411, 303.831 131.531, 324.684 106 C 332.154 96.855, 356.799 71.466, 357.513 72.180 C 357.796 72.463, 357.022 74.001, 355.791 75.597 C 350.531 82.425, 337.266 97.959, 331.966 103.500 C 326.504 109.209, 323.145 114, 324.604 114 C 325.636 114, 337.330 103.637, 348.862 92.504 C 359.724 82.017, 374.123 65.325, 380.338 56.013 C 383.614 51.104, 384 49.843, 384 44.035 L 384 37.544 377.888 31.817 C 372.404 26.680, 370.629 25.704, 360.638 22.338 L 349.500 18.586 326.289 18.430 C 304.837 18.286, 302.833 18.423, 299.853 20.236" stroke="none" fill="#ffffff" fill-rule="evenodd"/>
</svg>