<?xml version="1.0" standalone="no"?>
<!DOCTYPE svg PUBLIC "-//W3C//DTD SVG 20010904//EN"
 "http://www.w3.org/TR/2001/REC-SVG-20010904/DTD/svg10.dtd">
<svg version="1.0" xmlns="http://www.w3.org/2000/svg"
 width="300.000000pt" height="300.000000pt" viewBox="0 0 300.000000 300.000000"
 preserveAspectRatio="xMidYMid meet">
<metadata>
Created by potrace 1.10, written by Peter Selinger 2001-2011
</metadata>
<g transform="translate(0.000000,300.000000) scale(0.100000,-0.100000)"
fill="#000000" stroke="none">
<path d="M2234 2838 c-125 -94 -250 -212 -548 -517 l-109 -111 -86 143 c-48
78 -108 180 -134 227 -25 47 -67 105 -92 130 l-45 44 -325 4 c-384 5 -375 7
-375 -84 0 -40 7 -69 29 -112 16 -32 48 -105 70 -162 23 -57 59 -135 80 -174
45 -83 242 -416 300 -509 23 -35 41 -71 41 -80 0 -9 -28 -47 -63 -84 -35 -38
-73 -81 -84 -96 -12 -16 -55 -65 -96 -110 -78 -86 -109 -123 -335 -402 -285
-351 -386 -534 -324 -587 23 -21 98 -58 117 -58 8 0 15 9 15 20 0 11 5 20 11
20 8 0 10 -12 6 -34 -6 -39 15 -63 101 -116 43 -26 61 -30 150 -35 87 -5 102
-4 102 9 0 25 17 27 52 6 18 -11 49 -20 69 -20 l36 0 -1 103 -1 102 56 75 c70
92 563 584 580 578 7 -2 17 -13 23 -23 132 -230 332 -438 494 -512 l74 -33
168 4 c93 2 173 7 178 10 5 3 73 10 152 16 148 11 224 31 244 63 16 27 -17 47
-77 47 -45 0 -54 4 -106 51 -31 27 -75 74 -98 102 -36 44 -43 59 -43 97 0 36
-8 56 -35 95 -19 28 -43 61 -52 75 -9 14 -34 44 -54 67 -21 22 -49 64 -63 92
-16 31 -38 57 -56 66 -17 9 -30 22 -30 30 0 31 -109 233 -129 240 -11 3 -29
22 -41 42 l-21 36 138 141 c234 238 266 276 229 276 -14 0 -47 -33 -211 -207
-38 -40 -72 -73 -77 -73 -15 0 12 43 61 95 55 60 132 150 193 225 24 30 73 91
108 135 67 83 279 305 280 293 0 -10 -116 -155 -176 -218 -28 -30 -57 -66 -64
-80 -11 -20 -4 -17 36 17 79 66 236 223 294 293 87 106 110 148 110 201 0 44
-4 50 -49 91 -35 32 -71 51 -128 71 -76 25 -91 27 -260 27 -170 0 -181 -1
-209 -22z"/>
</g>
</svg>
